<?xml version="1.0" encoding="UTF-8" standalone="no"?>
<!-- Created with Inkscape (http://www.inkscape.org/) -->

<svg
   xmlns:dc="http://purl.org/dc/elements/1.1/"
   xmlns:cc="http://creativecommons.org/ns#"
   xmlns:rdf="http://www.w3.org/1999/02/22-rdf-syntax-ns#"
   xmlns:svg="http://www.w3.org/2000/svg"
   xmlns="http://www.w3.org/2000/svg"
   xmlns:sodipodi="http://sodipodi.sourceforge.net/DTD/sodipodi-0.dtd"
   xmlns:inkscape="http://www.inkscape.org/namespaces/inkscape"
   width="744.09448819"
   height="1052.3622047"
   id="svg2"
   version="1.1"
   inkscape:version="0.48.3.1 r9886"
   sodipodi:docname="nojavascript.svg">
  <defs
     id="defs4">
    <clipPath
       clipPathUnits="userSpaceOnUse"
       id="clipPath3940">
      <path
         style="fill:#fd0000;fill-opacity:1;stroke:none"
         d="m 305,570.93361 c 2.89162,-3.30949 7.825,-6.15073 12.71277,-6.90874 9.77778,-3.03238 20.08481,-1.77342 30.12857,-1.74141 5.54501,-0.23679 11.14125,0.22091 15.6643,3.74625 3.50472,1.54786 9.15314,7.31391 4.36178,10.42319 -5.08987,2.69635 -10.76515,3.23634 -16.44101,3.12237 -7.34017,0.54543 -14.66698,1.70409 -22.05561,1.08875 -7.64883,-0.65773 -16.12632,0.33525 -22.82008,-4.15581 -1.92977,-1.2178 -3.0454,-3.53272 -1.55072,-5.5746 z"
         id="path3942"
         inkscape:connector-curvature="0" />
    </clipPath>
  </defs>
  <sodipodi:namedview
     id="base"
     pagecolor="#ffffff"
     bordercolor="#666666"
     borderopacity="1.0"
     inkscape:pageopacity="0.0"
     inkscape:pageshadow="2"
     inkscape:zoom="0.7"
     inkscape:cx="1577.7102"
     inkscape:cy="607.19269"
     inkscape:document-units="px"
     inkscape:current-layer="layer1"
     showgrid="false"
     inkscape:window-width="1440"
     inkscape:window-height="853"
     inkscape:window-x="0"
     inkscape:window-y="60"
     inkscape:window-maximized="1" />
  <metadata
     id="metadata7">
    <rdf:RDF>
      <cc:Work
         rdf:about="">
        <dc:format>image/svg+xml</dc:format>
        <dc:type
           rdf:resource="http://purl.org/dc/dcmitype/StillImage" />
        <dc:title></dc:title>
      </cc:Work>
    </rdf:RDF>
  </metadata>
  <g
     inkscape:label="Layer 1"
     inkscape:groupmode="layer"
     id="layer1">
    <path
       style="fill:none;stroke:#000000;stroke-width:1px;stroke-linecap:butt;stroke-linejoin:miter;stroke-opacity:1"
       d="m -106.97165,876.86239 c 2.49807,-1.53857 5.41007,-1.962 8.081219,-3.03046 0.69907,-0.27963 1.28986,-0.82754 2.0203,-1.01015 7.19551,-1.79888 -5.117709,3.05724 5.05076,-1.01015 1.31473,0.56213 2.20353,-1.60684 3.03046,-2.02031 0.30117,-0.15058 0.77206,0.2381 1.01015,0 0.2381,-0.23809 -0.23809,-0.77205 0,-1.01015 0.2381,-0.2381 0.77206,0.2381 1.01016,0 1.34687,-1.34687 -1.68359,-1.01015 1.01015,-1.01015"
       id="path3863"
       inkscape:connector-curvature="0" />
    <g
       id="g3974"
       transform="translate(1002.0713,-173.74624)"
       inkscape:export-filename="/home/slopjong/workspaces/openspace/OpenSpaceLint/nojavascriptenabled.png"
       inkscape:export-xdpi="53.080208"
       inkscape:export-ydpi="53.080208">
      <g
         id="g3943">
        <path
           inkscape:connector-curvature="0"
           id="path3019"
           d="m 183.84776,572.56003 c -4.21362,13.5012 -6.24639,27.62168 -7.24808,41.68997 0.0502,5.16493 -1.49001,10.91257 -1.16632,17.24084 -1.99158,1.58309 -8.93025,6.5125 -10.91941,8.43329 -11.67423,8.5341 -11.20326,18.39863 -20.87924,28.78572 -2.58984,3.43233 -4.82625,7.24367 -8.27427,9.9162"
           style="fill:none;stroke:#000000;stroke-width:2.0999999;stroke-linecap:butt;stroke-linejoin:miter;stroke-miterlimit:4;stroke-opacity:1;stroke-dasharray:none"
           sodipodi:nodetypes="cccccc" />
        <path
           inkscape:connector-curvature="0"
           id="path3023"
           d="m 174.74868,630.88102 c 12.40291,6.424 17.77942,20.32391 20.86819,33.32977 1.34966,5.12063 2.84083,5.82153 9.41364,15.78255"
           style="fill:none;stroke:#000000;stroke-width:2.0999999;stroke-linecap:butt;stroke-linejoin:miter;stroke-miterlimit:4;stroke-opacity:1;stroke-dasharray:none"
           sodipodi:nodetypes="ccc" />
        <path
           inkscape:connector-curvature="0"
           id="path3025"
           d="m 144.45181,608.92552 c 21.25828,-2.09763 42.79451,-3.61029 64.0692,-0.97623 1.86488,0.38986 3.73589,0.76823 5.63133,0.97692"
           style="fill:none;stroke:#000000;stroke-width:2.0999999;stroke-linecap:butt;stroke-linejoin:miter;stroke-miterlimit:4;stroke-opacity:1;stroke-dasharray:none" />
      </g>
      <g
         id="g3948">
        <path
           style="fill:#ccda94;fill-opacity:1;stroke:#000000;stroke-width:2.0999999;stroke-linecap:butt;stroke-linejoin:miter;stroke-miterlimit:4;stroke-opacity:1;stroke-dasharray:none"
           d="m 193.94929,412.93562 c -23.7279,-1.68346 -47.65146,1.9292 -70.41234,8.51958 -20.18188,7.57992 -35.817717,28.30391 -34.075121,50.32544 -2.201557,14.4938 -10.911648,30.00247 -3.415679,44.31927 4.654647,6.10745 9.255016,12.43296 15.08463,17.54989 14.25367,11.80738 32.87793,16.38882 47.53614,27.59935 26.46707,15.46592 58.45784,13.81449 87.85406,10.90955 19.87709,-2.65695 33.51668,-20.71846 38.22751,-39.0989 5.92372,-20.90275 4.23637,-44.78871 -8.76784,-62.78693 -10.29754,-15.30245 -25.29546,-26.61174 -40.7228,-36.29796 -9.48973,-8.1603 -18.06576,-19.29043 -31.30856,-21.03929 z"
           id="path2994"
           inkscape:connector-curvature="0" />
        <g
           id="g3914">
          <path
             inkscape:connector-curvature="0"
             id="path3841"
             d="m 149.50258,427.07776 c 0,-4.04061 0,-8.08122 0,-12.12183 0,-0.24499 0.0325,-2.99797 0,-3.03046 -0.2381,-0.2381 -0.77206,0.23809 -1.01016,0 -0.67368,-0.67369 0.67369,-1.34662 0,-2.02031 -2.69374,0 0.33672,0.33672 -1.01015,-1.01015 -0.23809,-0.23809 -0.85957,0.30117 -1.01015,0 -0.45175,-0.90351 0.45175,-2.12695 0,-3.03046 -0.21296,-0.42591 -0.79719,-0.58423 -1.01015,-1.01015 -0.15059,-0.30117 0.23809,-0.77206 0,-1.01015 -0.2381,-0.2381 -0.77206,0.23809 -1.01016,0 -0.23809,-0.2381 0.15059,-0.70898 0,-1.01015 -0.21295,-0.42592 -0.79719,-0.58424 -1.01015,-1.01016 -0.15058,-0.30117 0.2381,-0.77205 0,-1.01015 -0.23809,-0.23809 -0.77206,0.2381 -1.01015,0 -0.47619,-0.47619 0.47619,-1.54411 0,-2.0203 -0.2381,-0.2381 -0.77206,0.23809 -1.01015,0 -0.2381,-0.2381 0.15058,-0.70899 0,-1.01016 -0.21296,-0.42591 -0.7972,-0.58423 -1.01016,-1.01015 -0.15058,-0.30117 0.2381,-0.77206 0,-1.01015 -1.34687,-1.34687 -1.01015,1.68359 -1.01015,-1.01015"
             style="fill:none;stroke:#000000;stroke-width:1px;stroke-linecap:butt;stroke-linejoin:miter;stroke-opacity:1" />
          <path
             inkscape:connector-curvature="0"
             id="path3843"
             d="m 183.84776,430.10821 c 0.86233,-2.56563 -1.5038,-3.99491 -2.0203,-6.06091 -0.16333,-0.65333 0.37355,-1.45997 0,-2.02031 -0.41765,-0.62647 -1.39384,-0.5925 -2.02031,-1.01015 -0.39621,-0.26414 -0.74601,-0.61394 -1.01015,-1.01015 -2.94126,-4.41189 0.44771,0.33296 -1.01015,-4.04061 -0.30117,-0.90351 -1.71914,-1.1168 -2.02031,-2.02031 -0.21296,-0.63887 0.16333,-1.36697 0,-2.0203 -0.18261,-0.73044 -0.77205,-1.30602 -1.01015,-2.02031 -0.10648,-0.31943 0,-0.67343 0,-1.01015 0,-0.67343 0,-1.34687 0,-2.0203 0,-0.67344 0,-1.34687 0,-2.02031 0,-0.67343 -0.21296,-1.38143 0,-2.0203 0.15058,-0.45176 0.74601,-0.61394 1.01015,-1.01016 3.6621,-7.32419 -1.06479,1.59719 2.02031,-3.03045 0.41764,-0.62647 0.47775,-1.48791 1.01015,-2.02031 0.2381,-0.23809 0.70898,0.15059 1.01015,0 0.26821,-0.1341 2.89636,-2.76225 3.03046,-3.03046 0.15059,-0.30117 -0.23809,-0.77205 0,-1.01015 0.2381,-0.23809 0.67344,0 1.01015,0 0.33672,0 0.67344,0 1.01016,0"
             style="fill:none;stroke:#000000;stroke-width:1px;stroke-linecap:butt;stroke-linejoin:miter;stroke-opacity:1" />
          <path
             inkscape:connector-curvature="0"
             id="path3845"
             d="m 165.66502,420.00669 c 0,-10.06768 0.95238,-1.1257 -1.01016,-5.05076 -0.40406,-0.80813 0.40407,-2.22234 0,-3.03046 -0.21295,-0.42592 -0.79719,-0.58424 -1.01015,-1.01015 -0.15058,-0.30117 0.0817,-0.68349 0,-1.01016 -0.25825,-1.033 -0.80133,-1.98634 -1.01015,-3.03045 -0.13207,-0.66036 0.30117,-1.41797 0,-2.02031 -0.42592,-0.85183 -1.53031,-1.20364 -2.02031,-2.0203 -0.54783,-0.91306 -0.46232,-2.11741 -1.01015,-3.03046 -0.48999,-0.81666 -1.44887,-1.2584 -2.0203,-2.02031 -0.45176,-0.60234 -0.67344,-1.34687 -1.01016,-2.0203 -0.67343,-1.34687 -1.34687,-2.69374 -2.0203,-4.04061"
             style="fill:none;stroke:#000000;stroke-width:1px;stroke-linecap:butt;stroke-linejoin:miter;stroke-opacity:1" />
          <path
             inkscape:connector-curvature="0"
             id="path3847"
             d="m 202.03051,434.14882 c 4.5985,-9.197 0.0578,0.36065 3.03046,-7.07106 0.27963,-0.69907 0.82754,-1.28987 1.01015,-2.02031 0.16333,-0.65333 -0.11071,-1.35603 0,-2.0203 0.59638,-3.57829 0.71271,-3.44573 2.0203,-6.06092 0.33672,-0.67343 0.77206,-1.30602 1.01016,-2.0203 0.10648,-0.31944 -0.2381,-0.77206 0,-1.01016 0.23809,-0.23809 0.77205,0.2381 1.01015,0 0.23809,-0.23809 -0.2381,-0.77205 0,-1.01015 0.23809,-0.23809 0.67343,0 1.01015,0 1.68359,0 3.36718,0 5.05076,0"
             style="fill:none;stroke:#000000;stroke-width:1px;stroke-linecap:butt;stroke-linejoin:miter;stroke-opacity:1" />
          <path
             inkscape:connector-curvature="0"
             id="path3849"
             d="m 226.27417,437.17928 c 0.33672,-1.34687 0.73788,-2.67925 1.01015,-4.04061 0.19811,-0.99053 0,-2.0203 0,-3.03046 0,-2.69374 0,-5.38748 0,-8.08122 0,-1.67269 0.22806,-5.70274 0,-7.07106 -0.17505,-1.05031 -0.67343,-2.02031 -1.01015,-3.03046 -0.33672,-1.01015 -0.53396,-2.07808 -1.01015,-3.03046 -0.54294,-1.08588 -1.56942,-1.90324 -2.02031,-3.03046 -0.2501,-0.62527 0.37356,-1.45997 0,-2.0203 -0.41764,-0.62647 -1.48791,-0.47776 -2.0203,-1.01015 -0.2381,-0.2381 0.23809,-0.77206 0,-1.01016 -0.2381,-0.23809 -0.67344,0 -1.01016,0 -0.33671,0 -0.67343,0 -1.01015,0"
             style="fill:none;stroke:#000000;stroke-width:1px;stroke-linecap:butt;stroke-linejoin:miter;stroke-opacity:1" />
          <path
             inkscape:connector-curvature="0"
             id="path3851"
             d="m 191.92898,415.96608 c 0.33672,-1.34687 0.67344,-2.69374 1.01016,-4.04061 0.33671,-0.67344 0.77205,-1.30602 1.01015,-2.02031 0.2316,-0.69481 -0.29801,-2.43444 0,-3.03045 0.21296,-0.42592 0.79719,-0.58424 1.01015,-1.01016 0.15059,-0.30117 0,-0.67343 0,-1.01015 0,-1.01015 0.45176,-2.12695 0,-3.03046 -0.15058,-0.30117 -0.70898,0.15059 -1.01015,0 -1.68407,-0.84203 -0.45643,-2.0203 -3.03046,-2.0203"
             style="fill:none;stroke:#000000;stroke-width:1px;stroke-linecap:butt;stroke-linejoin:miter;stroke-opacity:1" />
          <path
             inkscape:connector-curvature="0"
             id="path3853"
             d="m 170.71578,431.11837 c 2.19757,-1.76322 0.5134,-4.0739 1.01015,-6.06092 0.18261,-0.73044 0.77206,-1.30602 1.01016,-2.0203 0.14014,-0.42045 0.0749,-4.67615 0,-5.05077 -0.18521,-0.92601 -1.28565,-4.07122 -2.02031,-5.05076 -0.57143,-0.7619 -1.44888,-1.2584 -2.0203,-2.0203 -0.45176,-0.60234 -0.5584,-1.41797 -1.01016,-2.02031 -0.57143,-0.7619 -1.44887,-1.2584 -2.0203,-2.0203 -0.45176,-0.60234 -0.47776,-1.48791 -1.01016,-2.02031 -0.53239,-0.5324 -1.37467,-0.62278 -2.0203,-1.01015 -2.85556,-1.71334 -2.396,-1.38585 -4.04061,-3.03046"
             style="fill:none;stroke:#000000;stroke-width:1px;stroke-linecap:butt;stroke-linejoin:miter;stroke-opacity:1" />
          <path
             inkscape:connector-curvature="0"
             id="path3855"
             d="m 157.5838,430.10821 c -6.09749,0.51623 0.2039,-3.83671 -1.01016,-5.05076 -0.23809,-0.23809 -0.77205,0.2381 -1.01015,0 -2.55155,-2.55155 -0.38816,-1.16449 -1.01015,-3.03046 -0.2381,-0.71428 -0.59251,-1.39383 -1.01015,-2.0203 -0.26415,-0.39622 -0.67344,-0.67344 -1.01016,-1.01015 -0.33671,-1.01016 -0.53396,-2.07808 -1.01015,-3.03046 -0.54294,-1.08588 -1.39568,-1.98942 -2.0203,-3.03046 -0.38738,-0.64562 -0.67344,-1.34687 -1.01016,-2.0203 -0.67343,-1.34687 -1.34687,-2.69374 -2.0203,-4.04061 -0.33672,-0.67344 -0.77206,-1.30602 -1.01015,-2.02031 -0.21296,-0.63888 0,-1.34687 0,-2.0203"
             style="fill:none;stroke:#000000;stroke-width:1px;stroke-linecap:butt;stroke-linejoin:miter;stroke-opacity:1" />
          <path
             inkscape:connector-curvature="0"
             id="path3857"
             d="m 129.29953,432.12852 c -1.70908,-3.11455 -4.48286,-4.92511 -6.06092,-8.08122 -0.47619,-0.95238 -0.53396,-2.07808 -1.01015,-3.03046 -0.54294,-1.08588 -1.41797,-1.97636 -2.02031,-3.03046 -0.74711,-1.30744 -1.27319,-2.73317 -2.0203,-4.04061 -0.60234,-1.05409 -1.54207,-1.91456 -2.02031,-3.03045 -0.82808,-1.93219 -1.93542,-6.1458 0,-8.08122 0.2381,-0.2381 0.67344,0 1.01016,0 1.68358,0 3.36717,0 5.05076,0"
             style="fill:none;stroke:#000000;stroke-width:1px;stroke-linecap:butt;stroke-linejoin:miter;stroke-opacity:1" />
          <path
             inkscape:connector-curvature="0"
             id="path3859"
             d="m 235.36554,444.25035 c 2.07405,-0.80983 -1.77798,-3.51509 -1.01015,-5.05076 0.21296,-0.42592 0.79719,-0.58424 1.01015,-1.01015 0.15059,-0.30117 -0.23809,-0.77206 0,-1.01016 2.45346,-2.45346 1.48333,0.30039 3.03046,-2.0203 0.83529,-1.25294 1.1168,-2.83594 2.02031,-4.04061 0.57142,-0.76191 1.49201,-1.22788 2.0203,-2.02031 0.18678,-0.28016 -0.23809,-0.77206 0,-1.01015 0.2381,-0.2381 0.70898,0.15058 1.01015,0 0.42592,-0.21296 0.58424,-0.79719 1.01016,-1.01015 0.30742,-0.15371 2.57552,0 3.03045,0"
             style="fill:none;stroke:#000000;stroke-width:1px;stroke-linecap:butt;stroke-linejoin:miter;stroke-opacity:1" />
          <path
             inkscape:connector-curvature="0"
             id="path3861"
             d="m 214.15234,433.13867 c 0,-2.35702 0,-4.71404 0,-7.07107 0,-0.67343 -0.13207,-1.35994 0,-2.0203 0.20882,-1.04412 0.80133,-1.98634 1.01015,-3.03046 0.5612,-2.80598 -0.84179,-1.68359 0,-5.05076 0.23099,-0.92395 1.71914,-1.1168 2.02031,-2.02031 0.21296,-0.63887 -0.30117,-1.41796 0,-2.0203 0.15058,-0.30117 0.77205,0.23809 1.01015,0 0.5324,-0.5324 0.47776,-1.48791 1.01015,-2.02031 0.2381,-0.23809 0.69072,0.10648 1.01015,0 0.71429,-0.23809 1.30602,-0.77205 2.02031,-1.01015 0.63888,-0.21296 1.34687,0 2.02031,0"
             style="fill:none;stroke:#000000;stroke-width:1px;stroke-linecap:butt;stroke-linejoin:miter;stroke-opacity:1" />
          <path
             inkscape:connector-curvature="0"
             id="path3865"
             d="m 235.36554,446.27066 c 1.34687,-0.67344 2.69374,-1.34687 4.04061,-2.02031 2.43646,-1.21823 2.25258,-1.24242 4.04061,-3.03046 0.33672,-0.33671 0.67344,-0.67343 1.01016,-1.01015 0.33671,-0.33672 0.58423,-0.79719 1.01015,-1.01015 0.30117,-0.15059 0.77206,0.23809 1.01015,0 0.2381,-0.2381 -0.23809,-0.77206 0,-1.01015 0.2381,-0.2381 0.77206,0.23809 1.01015,0 0.2381,-0.2381 -0.23809,-0.77206 0,-1.01016 0.2381,-0.23809 0.70899,0.15059 1.01016,0 2.2335,-1.11675 0.31347,-0.62694 1.01015,-2.0203 2.10201,-4.20402 -0.0697,1.07989 2.0203,-1.01016 0.2381,-0.23809 -0.23809,-0.77205 0,-1.01015 1.34687,-1.34687 1.01016,1.68359 1.01016,-1.01015"
             style="fill:none;stroke:#000000;stroke-width:1px;stroke-linecap:butt;stroke-linejoin:miter;stroke-opacity:1" />
          <path
             inkscape:connector-curvature="0"
             id="path3867"
             d="m 223.24371,439.19959 c 0.67344,-1.34687 1.07961,-2.86474 2.02031,-4.04061 0.47035,-0.58794 1.37468,-0.62278 2.0203,-1.01016 1.04104,-0.62462 2.08244,-1.26189 3.03046,-2.0203 1.58607,-1.26886 3.60033,-3.60032 5.05076,-5.05076 0.33672,-0.33672 0.58424,-0.7972 1.01016,-1.01016 0.30116,-0.15058 0.67343,0 1.01015,0 0.33672,0 0.67343,0 1.01015,0"
             style="fill:none;stroke:#000000;stroke-width:1px;stroke-linecap:butt;stroke-linejoin:miter;stroke-opacity:1" />
        </g>
        <g
           id="g3935">
          <path
             clip-path="none"
             mask="none"
             inkscape:connector-curvature="0"
             id="path3905"
             d="m 223.57143,530.21932 c -14.99071,-3.27991 -30.43061,0.49133 -45.58602,-0.51181 -12.00216,-0.96293 -27.90684,13.10111 -16.11148,23.85448 12.77945,9.22822 29.73875,6.9162 44.54684,5.86773 9.33124,-2.23222 23.25177,-0.99641 27.14574,-11.78542 0.98292,-7.17608 -4.94959,-13.22252 -9.99508,-17.42498 z"
             style="fill:#000000;fill-opacity:1;stroke:#000000;stroke-width:1px;stroke-linecap:butt;stroke-linejoin:miter;stroke-opacity:1" />
          <path
             transform="translate(-136.45024,-11.700915)"
             style="fill:#ff0000;fill-opacity:1;stroke:#000000;stroke-width:1px;stroke-linecap:butt;stroke-linejoin:miter;stroke-opacity:1"
             d="m 359.91071,541.91575 c -14.99071,-3.27991 -30.43061,0.49133 -45.58602,-0.51181 -12.00216,-0.96293 -27.90684,13.10111 -16.11148,23.85448 12.77945,9.22822 29.73875,6.9162 44.54684,5.86773 9.33124,-2.23222 23.25177,-0.99641 27.14574,-11.78542 0.98292,-7.17608 -4.94959,-13.22252 -9.99508,-17.42498 z"
             id="path3933"
             inkscape:connector-curvature="0"
             mask="none"
             clip-path="url(#clipPath3940)" />
        </g>
        <path
           sodipodi:type="arc"
           style="fill:#000000;fill-opacity:1;stroke:#000000;stroke-width:1.89999998;stroke-miterlimit:4;stroke-opacity:1;stroke-dasharray:none"
           id="path3999"
           sodipodi:cx="155.05841"
           sodipodi:cy="477.08032"
           sodipodi:rx="26.263966"
           sodipodi:ry="17.172594"
           d="m 181.32238,477.08032 c 0,9.48416 -11.75878,17.1726 -26.26397,17.1726 -14.50519,0 -26.26396,-7.68844 -26.26396,-17.1726 0,-9.48416 11.75877,-17.17259 26.26396,-17.17259 14.50519,0 26.26397,7.68843 26.26397,17.17259 z"
           transform="translate(-11.111678,0.50507627)" />
        <g
           id="g3929">
          <path
             transform="translate(60.104077,-4.0406102)"
             sodipodi:type="arc"
             style="fill:#000000;fill-opacity:1;stroke:none"
             id="path4003"
             sodipodi:cx="155.05841"
             sodipodi:cy="477.08032"
             sodipodi:rx="26.263966"
             sodipodi:ry="17.172594"
             d="m 181.32238,477.08032 c 0,9.48416 -11.75878,17.1726 -26.26397,17.1726 -14.50519,0 -26.26396,-7.68844 -26.26396,-17.1726 0,-9.48416 11.75877,-17.17259 26.26396,-17.17259 14.50519,0 26.26397,7.68843 26.26397,17.17259 z" />
          <path
             sodipodi:nodetypes="cccc"
             inkscape:connector-curvature="0"
             id="path4005"
             d="m 168.1904,475.94388 c 0.57741,-2.24075 3.13353,-4.20094 5.08907,-5.65369 3.38321,-1.91728 8.98616,-2.47456 12.80372,-1.54276 2.10821,0.95362 4.45258,1.85687 6.09889,3.53462"
             style="fill:none;stroke:#000000;stroke-width:1.39999998;stroke-linecap:butt;stroke-linejoin:miter;stroke-miterlimit:4;stroke-opacity:1;stroke-dasharray:none" />
          <path
             inkscape:connector-curvature="0"
             id="path4017"
             d="m 116.67262,477.58538 c -1.66503,0.21317 0.63114,-0.18168 -0.83544,-0.17629 -3.53122,-0.32578 -6.3303,-2.68329 -9.37577,-4.2331 -2.43838,-1.89411 -5.29974,-3.11985 -7.802958,-4.91119 -1.989197,-1.01569 -4.044355,-2.30208 -6.113484,-3.40041 -0.886022,-0.64788 -2.039151,-0.74121 -2.89388,-1.42116"
             style="fill:none;stroke:#000000;stroke-width:1.39999998;stroke-linecap:butt;stroke-linejoin:miter;stroke-miterlimit:4;stroke-opacity:1;stroke-dasharray:none" />
          <path
             inkscape:connector-curvature="0"
             id="path4029"
             d="m 240.92138,470.26178 c 1.92961,-0.54916 3.81124,-1.32352 5.49161,-2.42724 1.36221,-0.967 2.24092,-2.42933 3.40131,-3.60537 1.00028,-1.21244 1.88257,-2.51755 2.91013,-3.70853 0.66196,-0.86125 1.25719,-1.77918 1.80103,-2.71534 0.0485,-0.1345 0.0629,-0.28246 0.033,-0.42295"
             style="fill:none;stroke:#000000;stroke-width:1.39999998;stroke-linecap:butt;stroke-linejoin:miter;stroke-miterlimit:4;stroke-opacity:1;stroke-dasharray:none" />
        </g>
      </g>
    </g>
    <path
       style="opacity:1;fill:#c5c5c5;fill-opacity:1;stroke:#000000;stroke-width:0.6;stroke-linecap:butt;stroke-linejoin:miter;stroke-opacity:1;stroke-miterlimit:4;stroke-dasharray:none"
       d="m 1301.2059,344.08213 c 258.0783,-114.73075 -77.4092,-189.48853 548.8464,-176.03231 116.2622,2.4981 250.3236,12.16786 251.0665,138.01816 0.7468,126.52494 -30.0319,147.13798 -257.7861,150.02401 -679.8949,8.6154 -293.8279,-116.75721 -542.1268,-112.00986 z"
       id="path3135"
       inkscape:connector-curvature="0"
       sodipodi:nodetypes="csssc"
       inkscape:export-filename="/home/slopjong/workspaces/openspace/OpenSpaceLint/nojavascriptenabled.png"
       inkscape:export-xdpi="53.080208"
       inkscape:export-ydpi="53.080208" />
    <text
       xml:space="preserve"
       style="font-size:40px;font-style:normal;font-weight:normal;line-height:147.00000286%;letter-spacing:0px;word-spacing:0px;fill:#000000;fill-opacity:1;stroke:none;font-family:Sans"
       x="1743.7349"
       y="229.96373"
       id="text4041"
       sodipodi:linespacing="147%"
       inkscape:export-filename="/home/slopjong/workspaces/openspace/OpenSpaceLint/nojavascriptenabled.png"
       inkscape:export-xdpi="53.080208"
       inkscape:export-ydpi="53.080208"><tspan
         sodipodi:role="line"
         x="1753.5005"
         y="229.96373"
         id="tspan4045"
         style="font-size:40px;font-style:normal;font-variant:normal;font-weight:normal;font-stretch:normal;text-align:center;line-height:147.00000286000002347%;writing-mode:lr-tb;text-anchor:middle;fill:#483737;font-family:Jose Fernandez;-inkscape-font-specification:Jose Fernandez;letter-spacing:3.96999918px"
         dx="0">I must execute some </tspan><tspan
         sodipodi:role="line"
         x="1753.5005"
         y="288.76373"
         id="tspan4051"
         style="font-size:40px;font-style:normal;font-variant:normal;font-weight:normal;font-stretch:normal;text-align:center;line-height:147.00000286000002347%;writing-mode:lr-tb;text-anchor:middle;fill:#483737;font-family:Jose Fernandez;-inkscape-font-specification:Jose Fernandez;letter-spacing:3.96999918px">javascript. How should I do </tspan><tspan
         sodipodi:role="line"
         x="1753.5005"
         y="347.56372"
         id="tspan4053"
         style="font-size:40px;font-style:normal;font-variant:normal;font-weight:normal;font-stretch:normal;text-align:center;line-height:147.00000286000002347%;writing-mode:lr-tb;text-anchor:middle;fill:#483737;font-family:Jose Fernandez;-inkscape-font-specification:Jose Fernandez;letter-spacing:3.96999918px">my job if you refuse access </tspan><tspan
         sodipodi:role="line"
         x="1743.7349"
         y="406.36374"
         style="font-size:40px;font-style:normal;font-variant:normal;font-weight:normal;font-stretch:normal;text-align:center;line-height:147.00000286000002347%;writing-mode:lr-tb;text-anchor:middle;fill:#483737;font-family:Jose Fernandez;-inkscape-font-specification:Jose Fernandez;letter-spacing:3.96999918px"
         id="tspan4009">to the javascript engine?</tspan></text>
    <flowRoot
       xml:space="preserve"
       id="flowRoot3906"
       style="fill:black;stroke:none;stroke-opacity:1;stroke-width:1px;stroke-linejoin:miter;stroke-linecap:butt;fill-opacity:1;font-family:Sans;font-style:normal;font-weight:normal;font-size:40px;line-height:125%;letter-spacing:0px;word-spacing:0px"><flowRegion
         id="flowRegion3908"><rect
           id="rect3910"
           width="305.71429"
           height="194.28572"
           x="628.57141"
           y="429.50504" /></flowRegion><flowPara
         id="flowPara3912"></flowPara></flowRoot>  </g>
  <g
     inkscape:groupmode="layer"
     id="layer2"
     inkscape:label="Parts"
     style="display:none">
    <path
       style="fill:none;stroke:#000000;stroke-width:1px;stroke-linecap:butt;stroke-linejoin:miter;stroke-opacity:1"
       d="m -13.203809,432.64894 c 0.85562,-0.80004 1.99668,-2.77386 3.80431,-3.48222 2.21105,-1.027 4.69098,-1.3314 6.98415,-2.16611 4.0179,-1.31351 8.26782,-1.44062 12.40628,-2.16014 3.44942,-0.37326 6.80919,-1.27483 10.27558,-1.49523 5.4492,-0.40461 11.04082,-0.67535 16.3425,0.92028 2.72269,0.85052 5.54761,1.407 8.06848,2.79936 0.56279,0.28379 1.18814,0.43639 1.7177,0.78583"
       id="path3914"
       inkscape:connector-curvature="0" />
    <path
       style="fill:#000000;fill-opacity:1;stroke:#000000;stroke-width:1px;stroke-linecap:butt;stroke-linejoin:miter;stroke-opacity:1"
       d="m 249.50767,325.05234 c -9.87058,-9.19818 -32.63711,4.34629 -20.21477,16.03019 8.34033,7.70441 24.09462,12.23309 33.06102,3.41356 8.89035,-10.34082 -1.83787,-20.42936 -12.84625,-19.44375 z"
       id="path3837"
       inkscape:connector-curvature="0" />
    <path
       style="fill:#000000;fill-opacity:1;stroke:#000000;stroke-width:1px;stroke-linecap:butt;stroke-linejoin:miter;stroke-opacity:1"
       d="m 146.47212,324.0422 c -5.65948,-10.13438 -22.28309,-4.72646 -26.70672,4.27846 -7.65392,9.11788 -5.81295,24.90552 6.79864,28.15269 11.80446,5.37454 28.94743,1.04007 32.58476,-12.57027 1.42737,-10.88804 -8.52478,-18.5336 -17.08356,-23.07879 l -0.89604,-0.83248 -0.75796,-1.0002"
       id="path3839"
       inkscape:connector-curvature="0" />
    <rect
       style="opacity:0.30472106999999998;fill:#000000;fill-opacity:1;stroke:#000000;stroke-width:86.57152557000000570;stroke-linecap:butt;stroke-linejoin:round;stroke-miterlimit:4;stroke-opacity:1;stroke-dasharray:none;stroke-dashoffset:0"
       id="rect4037"
       width="670.98743"
       height="184.04222"
       x="1008.4562"
       y="-170.11453" />
  </g>
</svg>
